<?xml version="1.0" standalone="no"?>
<!DOCTYPE svg PUBLIC "-//W3C//DTD SVG 20010904//EN"
 "http://www.w3.org/TR/2001/REC-SVG-20010904/DTD/svg10.dtd">
<svg version="1.0" xmlns="http://www.w3.org/2000/svg"
 width="800.000000pt" height="800.000000pt" viewBox="0 0 800.000000 800.000000"
 preserveAspectRatio="xMidYMid meet">
<metadata>
Created by potrace 1.14, written by Peter Selinger 2001-2017
</metadata>
<g transform="translate(0.000000,800.000000) scale(0.100000,-0.100000)"
fill="#000000" stroke="none">
<path d="M3188 7392 c-54 -31 -98 -60 -98 -63 0 -10 147 -90 222 -120 40 -17
60 -27 43 -24 -44 9 -256 114 -275 136 -5 5 -303 -98 -880 -306 -354 -128
-369 -134 -387 -161 -14 -21 -13 -27 9 -66 23 -42 25 -43 80 -46 l57 -3 22 42
21 43 -21 44 c-12 24 -20 46 -17 49 2 2 16 -22 31 -54 104 -226 177 -473 215
-735 18 -117 26 -244 13 -195 -8 30 -30 19 -60 -30 l-30 -48 27 -45 c16 -27
35 -46 48 -48 20 -3 21 2 25 75 1 43 3 -30 3 -162 0 -132 -1 -212 -3 -177 -3
53 -7 62 -23 62 -11 0 -29 -18 -47 -47 l-30 -48 27 -45 c33 -57 57 -64 63 -18
2 18 4 6 4 -27 0 -33 -2 -50 -4 -37 -7 37 -36 26 -62 -24 l-25 -46 24 -44 c14
-24 28 -44 32 -44 3 0 9 26 13 58 8 74 13 87 14 37 0 -45 -36 -264 -37 -225
-1 14 3 44 7 68 5 23 6 42 2 42 -3 0 -18 -19 -32 -43 -24 -40 -25 -44 -10 -67
9 -14 20 -28 25 -32 10 -7 -1 -68 -47 -258 l-30 -125 13 -705 c24 -1362 26
-1520 23 -2140 -2 -629 -5 -730 -23 -829 -11 -63 -6 -73 60 -110 57 -32 50
-20 -13 20 l-52 34 45 3 c32 2 50 10 63 25 l18 22 -10 -22 -11 -22 250 0 250
0 -10 22 -11 22 17 -22 c14 -20 25 -23 89 -23 68 0 75 2 93 27 19 26 19 27 0
60 -11 18 -17 33 -14 33 3 0 12 -14 21 -30 15 -28 19 -30 73 -30 54 0 59 -2
76 -30 17 -31 18 -31 94 -28 74 3 78 4 92 33 14 29 18 30 71 27 54 -3 57 -2
78 30 24 35 24 31 2 -14 -12 -24 -12 -31 3 -53 15 -23 22 -25 91 -25 71 0 75
1 91 29 16 27 23 30 80 33 34 2 61 1 59 -1 -3 -2 5 -17 16 -32 19 -27 24 -29
93 -29 65 0 76 3 90 22 l17 23 -11 -22 -10 -22 163 0 163 0 16 27 c16 27 16
30 -13 75 -29 47 -29 47 -83 47 -30 0 -57 3 -59 8 -3 4 23 6 57 4 l61 -4 23
41 c13 22 27 43 33 47 5 3 -4 -17 -21 -44 l-31 -50 28 -46 c28 -46 28 -46 83
-46 53 0 56 1 74 35 11 19 21 33 23 31 2 -2 -6 -20 -18 -40 -20 -34 -23 -36
-76 -36 -41 0 -59 -5 -69 -17 -7 -10 -14 -21 -14 -25 0 -5 36 -8 80 -8 80 0
81 0 70 23 l-11 22 17 -23 c14 -19 25 -22 90 -22 69 0 74 2 93 29 11 15 19 30
16 32 -2 2 23 2 55 1 58 -4 60 -3 80 30 11 18 20 29 20 25 0 -5 -8 -22 -17
-37 -15 -27 -15 -30 1 -55 16 -25 20 -26 94 -23 74 3 78 4 92 33 14 28 18 30
75 30 57 0 61 -2 75 -30 14 -29 18 -30 90 -33 67 -3 76 -1 92 20 l17 23 -6
-22 c-5 -22 -3 -23 71 -23 42 0 76 3 76 8 -1 26 -30 41 -86 44 l-59 3 67 5
c36 3 64 2 62 -1 -2 -4 6 -18 17 -33 l21 -26 161 1 c89 0 194 0 232 0 l70 -1
-25 -20 c-14 -11 -62 -39 -107 -62 -45 -24 -80 -44 -78 -46 5 -5 125 57 171
89 l41 28 -8 48 c-18 112 -20 183 -23 908 -4 740 -1 983 24 2195 12 577 12
586 -9 665 -54 211 -97 466 -106 620 -4 84 -3 82 10 -31 46 -401 162 -856 302
-1184 25 -58 46 -106 48 -108 4 -4 1099 290 1108 299 5 3 -23 116 -62 250
-127 443 -191 709 -275 1144 -109 566 -375 981 -752 1176 -41 21 -83 39 -93
39 -13 0 -29 -24 -56 -82 -106 -232 -182 -511 -221 -808 -13 -104 -13 -104 -8
-22 14 234 96 555 209 811 25 58 42 108 38 112 -10 8 -1045 389 -1059 389 -6
0 -32 -51 -58 -113 -113 -273 -234 -435 -390 -522 -238 -132 -710 -140 -971
-15 -123 59 -232 172 -321 332 -48 88 -138 287 -132 294 3 2 29 -50 57 -116
118 -268 239 -419 401 -499 130 -64 244 -85 465 -85 216 0 332 21 459 82 142
69 241 172 334 350 48 93 134 282 127 282 -1 0 -28 -16 -60 -35 -60 -35 -204
-99 -211 -93 -2 3 31 18 74 36 77 32 202 101 202 111 0 8 -200 125 -204 120
-2 -2 -20 -53 -40 -114 -20 -60 -41 -117 -47 -125 -9 -12 -10 -11 -4 5 34 97
75 220 75 226 0 4 -30 -6 -67 -23 -84 -38 -258 -82 -383 -98 -52 -6 -169 -11
-260 -11 -252 0 -449 34 -622 107 -43 18 -78 28 -78 24 0 -13 71 -213 86 -242
9 -18 27 -31 52 -37 252 -68 560 -88 836 -56 147 17 300 50 334 72 27 16 40
11 22 -9 -6 -7 -32 -50 -57 -95 -51 -91 -128 -176 -194 -215 -89 -52 -171 -70
-339 -75 -177 -5 -263 8 -366 56 -69 32 -150 102 -195 167 -50 73 -116 214
-156 331 -21 62 -40 113 -43 113 -3 0 -49 -26 -102 -58z m1083 -1447 c13 -25
26 -45 29 -45 4 0 16 21 29 46 15 32 25 44 32 37 7 -7 7 -17 0 -29 -5 -11 -24
-49 -41 -86 -17 -38 -35 -68 -41 -68 -12 0 -12 17 1 41 9 15 4 31 -24 78 -31
54 -35 71 -16 71 4 0 18 -20 31 -45z m209 -34 c29 -55 -5 -120 -55 -107 -28 7
-48 45 -38 73 18 51 73 71 93 34z m62 -28 c3 -41 6 -48 25 -51 20 -3 22 2 25
44 2 27 8 49 16 52 9 3 12 -14 12 -61 l0 -65 -37 0 c-53 0 -63 12 -63 74 0 67
18 72 22 7z m196 20 c4 -25 -15 -31 -24 -8 -5 11 -11 12 -25 4 -14 -7 -19 -21
-19 -55 0 -30 -4 -44 -11 -42 -10 3 -14 60 -10 116 1 5 20 8 44 8 36 -1 42 -4
45 -23z m1029 -356 c-1 -67 -3 -9 -3 128 0 138 2 192 3 122 2 -71 2 -183 0
-250z m-1507 128 l0 -85 28 6 c15 3 35 8 45 11 11 3 17 -1 17 -11 0 -16 -51
-30 -91 -24 -19 2 -24 9 -23 31 3 126 5 157 14 157 6 0 10 -35 10 -85z m200 6
c27 -52 -6 -119 -54 -107 -29 7 -50 47 -41 77 16 48 75 66 95 30z m124 13 c11
-4 16 -19 16 -53 0 -72 -17 -120 -45 -127 -32 -8 -57 -2 -63 15 -4 11 2 12 23
7 32 -8 55 7 55 36 0 17 -3 18 -15 8 -24 -20 -65 12 -65 50 0 51 47 82 94 64z
m132 -19 c24 -36 8 -86 -30 -100 -24 -8 -31 -6 -47 14 -23 28 -24 59 -3 89 21
30 59 29 80 -3z m-2346 -4095 c-6 -11 -13 -20 -16 -20 -2 0 0 9 6 20 6 11 13
20 16 20 2 0 0 -9 -6 -20z m190 0 c6 -11 8 -20 6 -20 -3 0 -10 9 -16 20 -6 11
-8 20 -6 20 3 0 10 -9 16 -20z m1690 -60 c-6 -11 -13 -20 -16 -20 -2 0 0 9 6
20 6 11 13 20 16 20 2 0 0 -9 -6 -20z m670 -10 c-6 -11 -13 -20 -16 -20 -2 0
0 9 6 20 6 11 13 20 16 20 2 0 0 -9 -6 -20z m670 -10 c-6 -11 -13 -20 -16 -20
-2 0 0 9 6 20 6 11 13 20 16 20 2 0 0 -9 -6 -20z m170 0 c6 -11 8 -20 6 -20
-3 0 -10 9 -16 20 -6 11 -8 20 -6 20 3 0 10 -9 16 -20z m-670 -10 c6 -11 8
-20 6 -20 -3 0 -10 9 -16 20 -6 11 -8 20 -6 20 3 0 10 -9 16 -20z m-670 -10
c6 -11 8 -20 6 -20 -3 0 -10 9 -16 20 -6 11 -8 20 -6 20 3 0 10 -9 16 -20z
m-670 -10 c6 -11 8 -20 6 -20 -3 0 -10 9 -16 20 -6 11 -8 20 -6 20 3 0 10 -9
16 -20z m1690 0 c6 -11 8 -20 6 -20 -3 0 -10 9 -16 20 -6 11 -8 20 -6 20 3 0
10 -9 16 -20z m-3050 -50 c-6 -11 -13 -20 -16 -20 -2 0 0 9 6 20 6 11 13 20
16 20 2 0 0 -9 -6 -20z m150 0 c6 -11 8 -20 6 -20 -3 0 -10 9 -16 20 -6 11 -8
20 -6 20 3 0 10 -9 16 -20z m674 4 c3 -8 2 -12 -4 -9 -6 3 -10 10 -10 16 0 14
7 11 14 -7z m187 -7 c-10 -9 -11 -8 -5 6 3 10 9 15 12 12 3 -3 0 -11 -7 -18z
m679 3 c-6 -11 -13 -20 -16 -20 -2 0 0 9 6 20 6 11 13 20 16 20 2 0 0 -9 -6
-20z m150 0 c6 -11 8 -20 6 -20 -3 0 -10 9 -16 20 -6 11 -8 20 -6 20 3 0 10
-9 16 -20z m-1170 -10 c-6 -11 -13 -20 -16 -20 -2 0 0 9 6 20 6 11 13 20 16
20 2 0 0 -9 -6 -20z m500 0 c6 -11 8 -20 6 -20 -3 0 -10 9 -16 20 -6 11 -8 20
-6 20 3 0 10 -9 16 -20z m1190 0 c-6 -11 -13 -20 -16 -20 -2 0 0 9 6 20 6 11
13 20 16 20 2 0 0 -9 -6 -20z m-1855 -20 c14 -27 20 -29 78 -32 l62 -3 -67 -5
c-36 -3 -66 -3 -65 0 1 3 -7 20 -16 38 -10 17 -15 32 -13 32 3 0 12 -13 21
-30z m835 10 c-6 -11 -13 -20 -16 -20 -2 0 0 9 6 20 6 11 13 20 16 20 2 0 0
-9 -6 -20z m1690 0 c-6 -11 -13 -20 -16 -20 -2 0 0 9 6 20 6 11 13 20 16 20 2
0 0 -9 -6 -20z m-1020 -10 c-6 -11 -13 -20 -16 -20 -2 0 0 9 6 20 6 11 13 20
16 20 2 0 0 -9 -6 -20z m860 0 c6 -11 8 -20 6 -20 -3 0 -10 9 -16 20 -6 11 -8
20 -6 20 3 0 10 -9 16 -20z m-1882 -12 c-13 -20 -13 -26 -1 -48 14 -25 14 -25
-2 -2 -14 18 -27 22 -70 22 -43 0 -56 -4 -70 -22 -17 -23 -17 -23 -2 2 12 21
23 25 71 28 43 2 58 7 66 22 6 11 13 20 17 20 3 0 -1 -10 -9 -22z m1287 -21
l60 -3 -62 -2 c-58 -2 -63 -4 -78 -32 -9 -16 -18 -30 -21 -30 -3 0 3 15 13 33
18 30 18 35 5 57 l-14 25 18 -22 c15 -17 32 -23 79 -26z m403 21 c-14 -20 -14
-26 0 -48 l14 -25 -18 22 c-14 17 -32 23 -74 26 l-55 3 57 2 c46 2 59 6 68 22
6 11 13 20 17 20 3 0 -1 -10 -9 -22z m-1018 -8 c-9 -17 -20 -20 -73 -18 l-62
2 60 3 c39 3 63 9 68 19 12 22 19 17 7 -6z m1626 -13 l59 -3 -62 -2 c-56 -2
-63 0 -73 21 -10 19 -10 20 3 5 9 -11 32 -18 73 -21z m-3321 3 c-3 -5 -34 -9
-68 -8 l-62 1 65 7 c36 4 66 7 68 8 2 1 0 -2 -3 -8z m281 -8 c-32 -2 -63 1
-67 5 -4 4 22 6 59 3 l67 -5 -59 -3z m1071 6 c0 -10 -18 -12 -66 -8 l-66 4 65
6 c36 4 65 7 66 8 0 1 1 -4 1 -10z m658 -2 c11 -1 -10 -4 -46 -7 -40 -2 -66 0
-66 6 0 9 53 10 112 1z m1032 2 c0 -10 -18 -12 -66 -8 l-66 4 65 6 c36 4 65 7
66 8 0 1 1 -4 1 -10z m-3177 -38 c-6 -11 -13 -20 -16 -20 -2 0 0 9 6 20 6 11
13 20 16 20 2 0 0 -9 -6 -20z m490 0 c6 -11 8 -20 6 -20 -3 0 -10 9 -16 20 -6
11 -8 20 -6 20 3 0 10 -9 16 -20z m1200 0 c-6 -11 -13 -20 -16 -20 -2 0 0 9 6
20 6 11 13 20 16 20 2 0 0 -9 -6 -20z m490 0 c6 -11 8 -20 6 -20 -3 0 -10 9
-16 20 -6 11 -8 20 -6 20 3 0 10 -9 16 -20z m855 -10 c-9 -16 -18 -30 -21 -30
-2 0 2 14 11 30 9 17 18 30 21 30 2 0 -2 -13 -11 -30z m-2365 0 c-6 -11 -13
-20 -16 -20 -2 0 0 9 6 20 6 11 13 20 16 20 2 0 0 -9 -6 -20z m840 0 c6 -11 8
-20 6 -20 -3 0 -10 9 -16 20 -6 11 -8 20 -6 20 3 0 10 -9 16 -20z m1695 -10
c9 -16 13 -30 11 -30 -3 0 -12 14 -21 30 -9 17 -13 30 -11 30 3 0 12 -13 21
-30z m-2365 0 c6 -11 8 -20 6 -20 -3 0 -10 9 -16 20 -6 11 -8 20 -6 20 3 0 10
-9 16 -20z m500 0 c-6 -11 -13 -20 -16 -20 -2 0 0 9 6 20 6 11 13 20 16 20 2
0 0 -9 -6 -20z m1195 -10 c14 -28 20 -30 69 -30 44 0 56 4 70 23 16 22 16 22
4 -5 -10 -26 -16 -28 -68 -28 -31 0 -60 -3 -65 -7 -6 -5 -7 -4 -3 1 3 4 -3 23
-14 42 -11 19 -17 34 -14 34 3 0 12 -13 21 -30z m-2365 0 c6 -11 8 -20 6 -20
-3 0 -10 9 -16 20 -6 11 -8 20 -6 20 3 0 10 -9 16 -20z m150 0 c-6 -11 -13
-20 -16 -20 -2 0 0 9 6 20 6 11 13 20 16 20 2 0 0 -9 -6 -20z m1540 0 c6 -11
8 -20 6 -20 -3 0 -10 9 -16 20 -6 11 -8 20 -6 20 3 0 10 -9 16 -20z m150 0
c-6 -11 -13 -20 -16 -20 -2 0 0 9 6 20 6 11 13 20 16 20 2 0 0 -9 -6 -20z
m-1022 -15 c-10 -22 -17 -25 -68 -25 -48 0 -60 -4 -74 -22 l-17 -23 13 25 c7
14 12 27 11 30 -1 3 25 3 57 2 51 -3 60 -1 70 17 15 29 22 26 8 -4z m274 -14
c31 2 56 2 55 -1 -1 -3 4 -16 11 -30 l13 -25 -17 23 c-14 18 -26 22 -74 22
-52 0 -58 2 -69 28 l-12 27 19 -24 c16 -20 26 -23 74 -20z m-1290 12 c-7 -11
-4 -26 10 -50 11 -18 17 -33 14 -33 -3 0 -12 14 -21 30 -9 17 -23 30 -33 31
-14 0 -14 2 -2 6 8 3 19 12 23 19 12 20 20 17 9 -3z m614 -16 l59 -3 -62 -2
c-58 -2 -63 -4 -78 -32 -9 -16 -18 -30 -21 -30 -3 0 3 15 14 33 14 25 17 39
10 53 -9 17 -8 18 5 2 9 -11 32 -18 73 -21z m1687 -5 c-58 -3 -64 -5 -78 -32
-9 -17 -18 -30 -21 -30 -2 0 3 15 13 33 9 17 17 34 16 37 -1 3 29 3 65 0 l67
-5 -62 -3z m735 11 c-1 -5 3 -19 10 -33 l13 -25 -17 23 c-14 18 -27 22 -78 24
l-61 1 65 7 c36 4 66 7 68 8 1 1 1 -1 0 -5z m-2698 -25 c10 -21 10 -21 -3 -5
-10 12 -29 17 -67 17 -38 0 -57 -5 -67 -17 -13 -16 -13 -16 -3 5 9 19 18 22
70 22 52 0 61 -3 70 -22z m1343 15 c3 -5 -24 -6 -59 -5 -35 2 -64 0 -64 -5 0
-5 -7 -18 -15 -29 -14 -17 -14 -15 0 14 15 31 18 32 75 32 32 0 61 -3 63 -7z
m347 -15 c10 -21 10 -22 -4 -5 -12 15 -26 18 -74 15 -33 -1 -58 0 -55 5 2 4
31 7 63 7 52 0 61 -3 70 -22z m1343 15 c3 -5 -22 -6 -55 -5 -48 3 -62 0 -74
-15 -14 -17 -14 -16 -4 5 9 19 18 22 70 22 32 0 61 -3 63 -7z m287 3 c0 -2
-18 -6 -39 -8 -22 -2 -37 0 -35 4 5 8 74 11 74 4z m-2970 -36 c6 -11 8 -20 6
-20 -3 0 -10 9 -16 20 -6 11 -8 20 -6 20 3 0 10 -9 16 -20z m515 -10 c-9 -16
-18 -30 -21 -30 -2 0 2 14 11 30 9 17 18 30 21 30 2 0 -2 -13 -11 -30z m1175
10 c6 -11 8 -20 6 -20 -3 0 -10 9 -16 20 -6 11 -8 20 -6 20 3 0 10 -9 16 -20z
m515 -10 c-9 -16 -18 -30 -21 -30 -2 0 2 14 11 30 9 17 18 30 21 30 2 0 -2
-13 -11 -30z m-1185 0 c6 -11 8 -20 6 -20 -3 0 -10 9 -16 20 -6 11 -8 20 -6
20 3 0 10 -9 16 -20z m165 -10 c-9 -16 -18 -30 -21 -30 -2 0 2 14 11 30 9 17
18 30 21 30 2 0 -2 -13 -11 -30z m1535 -6 c16 -29 18 -39 9 -48 -9 -8 -10 -8
-5 1 3 6 -3 28 -15 47 -11 20 -19 36 -16 36 3 0 15 -16 27 -36z m155 6 c-9
-16 -18 -30 -21 -30 -2 0 2 14 11 30 9 17 18 30 21 30 2 0 -2 -13 -11 -30z
m-2525 0 c6 -11 8 -20 6 -20 -3 0 -10 9 -16 20 -6 11 -8 20 -6 20 3 0 10 -9
16 -20z m1505 -10 c-14 -27 -14 -33 0 -60 9 -16 13 -30 11 -30 -3 0 -12 14
-21 30 -14 27 -14 33 0 60 9 17 18 30 21 30 2 0 -2 -13 -11 -30z m190 -1 c9
-17 15 -33 13 -35 -3 -2 -12 12 -21 31 -21 43 -13 47 8 4z m-2555 1 c-6 -11
-13 -20 -16 -20 -2 0 0 9 6 20 6 11 13 20 16 20 2 0 0 -9 -6 -20z m190 0 c6
-11 8 -20 6 -20 -3 0 -10 9 -16 20 -6 11 -8 20 -6 20 3 0 10 -9 16 -20z m1690
0 c6 -11 8 -20 6 -20 -3 0 -10 9 -16 20 -6 11 -8 20 -6 20 3 0 10 -9 16 -20z
m1160 0 c-6 -11 -13 -20 -16 -20 -2 0 0 9 6 20 6 11 13 20 16 20 2 0 0 -9 -6
-20z m-2370 -10 c-8 -15 -7 -27 5 -50 9 -16 13 -30 11 -30 -3 0 -12 14 -21 30
-12 23 -13 35 -5 50 6 11 13 20 16 20 2 0 0 -9 -6 -20z m540 -1 c9 -16 6 -29
-17 -67 -15 -26 -27 -49 -26 -52 1 -3 -28 -5 -63 -5 -35 0 -64 3 -64 8 0 4 27
7 60 7 l59 0 26 44 c21 37 24 49 15 65 -6 12 -8 21 -6 21 3 0 10 -9 16 -21z
m1700 -19 c0 -3 -7 -15 -16 -26 -14 -18 -15 -18 -4 4 8 16 8 28 0 45 -11 21
-10 21 4 3 9 -11 16 -23 16 -26z m-682 5 c-3 -3 -9 2 -12 12 -6 14 -5 15 5 6
7 -7 10 -15 7 -18z m-2386 -53 c-17 -28 -29 -52 -26 -55 3 -2 -8 -2 -23 2 -25
5 -25 6 -6 9 25 4 78 86 67 105 -5 9 -4 9 6 0 10 -9 7 -21 -18 -61z m483 58
c-3 -5 6 -30 20 -55 l27 -45 58 0 c47 0 60 3 64 18 4 9 16 28 27 42 15 18 13
12 -6 -22 -15 -27 -23 -53 -19 -60 5 -10 4 -11 -7 0 -7 6 -36 12 -64 12 -47 0
-52 -2 -69 -35 -11 -19 -21 -33 -23 -31 -2 2 5 18 16 36 l19 32 -30 49 c-25
42 -30 69 -12 69 3 0 2 -4 -1 -10z m1229 -20 c-6 -6 -10 -3 -10 10 0 13 4 16
10 10 7 -7 7 -13 0 -20z m461 20 c-3 -5 -1 -19 5 -30 6 -11 8 -20 6 -20 -10 0
-27 41 -21 50 3 6 8 10 11 10 3 0 2 -4 -1 -10z m776 -100 c47 0 59 4 73 23
l17 22 -13 -25 c-7 -14 -12 -27 -11 -30 1 -3 -23 -3 -53 -2 -36 3 -60 -1 -71
-10 -13 -9 -15 -10 -9 0 4 7 -3 32 -18 58 -14 26 -26 52 -26 58 0 6 12 -13 27
-41 l27 -53 57 0z m-2780 40 c22 -39 24 -40 79 -40 55 0 57 1 79 40 12 22 26
42 32 46 5 3 -4 -17 -21 -45 l-32 -51 -58 0 -58 0 -32 51 c-17 28 -26 48 -21
45 6 -4 20 -24 32 -46z m1684 9 c22 -41 11 -36 -14 7 -12 19 -16 32 -11 29 6
-3 17 -19 25 -36z m-319 -31 c4 -15 17 -18 64 -18 56 0 60 2 75 30 9 17 18 30
21 30 2 0 -3 -15 -13 -32 -9 -18 -16 -40 -15 -48 1 -10 -1 -11 -4 -2 -4 7 -26
12 -58 12 -29 0 -58 -6 -65 -12 -11 -11 -12 -10 -7 0 4 7 -4 33 -19 60 -19 34
-21 40 -6 22 11 -14 23 -33 27 -42z m1664 42 c6 -11 8 -20 6 -20 -3 0 -10 9
-16 20 -6 11 -8 20 -6 20 3 0 10 -9 16 -20z m-2185 -20 c-9 -16 -18 -30 -21
-30 -2 0 2 14 11 30 9 17 18 30 21 30 2 0 -2 -13 -11 -30z m170 0 c9 -16 13
-30 11 -30 -3 0 -12 14 -21 30 -9 17 -13 30 -11 30 3 0 12 -13 21 -30z m1520
0 c-9 -16 -18 -30 -21 -30 -2 0 2 14 11 30 9 17 18 30 21 30 2 0 -2 -13 -11
-30z m668 -12 c-9 -18 -16 -40 -15 -48 1 -10 -1 -11 -4 -2 -4 7 -26 12 -60 12
-52 0 -56 -2 -75 -35 -12 -19 -23 -35 -26 -35 -3 0 4 16 16 36 17 28 19 40 10
57 -9 20 -9 20 4 5 10 -13 29 -18 70 -18 53 0 58 2 72 30 9 17 18 30 21 30 2
0 -3 -15 -13 -32z m182 3 c12 -25 23 -31 57 -34 l43 -4 -45 1 c-39 1 -46 5
-63 34 -10 17 -16 32 -13 32 3 0 12 -13 21 -29z m-1200 -11 c-15 -29 -15 -33
5 -65 12 -19 19 -35 17 -35 -3 0 -15 16 -28 36 -21 35 -23 36 -80 32 -31 -2
-57 -1 -56 2 1 3 -4 16 -11 30 l-13 25 17 -22 c14 -19 26 -23 74 -23 51 0 58
3 68 25 6 14 14 25 17 25 3 0 -2 -14 -10 -30z m-1425 -20 c54 0 55 -1 77 -40
12 -22 17 -38 12 -34 -5 3 -16 19 -25 35 -15 30 -18 31 -74 27 -32 -1 -57 -1
-54 1 2 2 -2 11 -8 20 -10 13 -10 14 2 4 8 -7 39 -13 70 -13z m1692 0 c32 0
58 -3 58 -7 0 -5 -29 -8 -64 -8 -55 0 -66 3 -70 19 -4 14 -2 16 7 7 6 -6 37
-11 69 -11z m-2447 -50 c-9 -16 -18 -30 -21 -30 -2 0 2 14 11 30 9 17 18 30
21 30 2 0 -2 -13 -11 -30z m1690 0 c-9 -16 -18 -30 -21 -30 -2 0 2 14 11 30 9
17 18 30 21 30 2 0 -2 -13 -11 -30z m1695 10 c-6 -11 -13 -20 -16 -20 -2 0 0
9 6 20 6 11 13 20 16 20 2 0 0 -9 -6 -20z m-3544 -42 c5 -17 13 -19 69 -16 35
2 62 1 60 -1 -3 -2 0 -13 6 -25 9 -19 9 -19 -4 -3 -10 12 -29 17 -70 17 -53 0
-56 1 -77 37 -13 23 -16 32 -6 24 8 -7 18 -22 22 -33z m344 -11 c0 -5 29 -7
64 -5 35 1 62 0 59 -4 -2 -5 -29 -8 -60 -8 -41 0 -60 -5 -70 -17 -13 -17 -14
-16 -4 2 7 15 5 29 -11 55 l-20 35 21 -25 c11 -14 21 -29 21 -33z m490 45 c0
-5 -7 -17 -15 -28 -14 -18 -14 -17 -4 9 12 27 19 34 19 19z m509 -22 c11 -24
11 -24 -3 -6 -9 11 -16 24 -16 30 0 12 5 7 19 -24z m161 10 c-6 -11 -13 -20
-16 -20 -2 0 0 9 6 20 6 11 13 20 16 20 2 0 0 -9 -6 -20z m186 -22 c5 -17 13
-19 69 -16 35 2 62 1 60 -1 -3 -2 0 -13 6 -25 9 -19 9 -19 -4 -3 -10 12 -29
17 -70 17 -53 0 -56 1 -77 37 -13 23 -16 32 -6 24 8 -7 18 -22 22 -33z m998
26 c3 -8 2 -12 -4 -9 -6 3 -10 10 -10 16 0 14 7 11 14 -7z m166 -4 c-6 -11
-13 -20 -16 -20 -2 0 0 9 6 20 6 11 13 20 16 20 2 0 0 -9 -6 -20z m178 -5 c6
-14 10 -25 8 -25 -2 0 -11 11 -20 25 -9 14 -13 25 -8 25 5 0 14 -11 20 -25z
m347 -16 c9 -27 111 -28 132 -1 13 16 13 15 4 -3 -6 -13 -6 -27 0 -40 10 -19
9 -19 -4 -2 -10 12 -29 17 -67 17 -38 0 -57 -5 -67 -17 -13 -17 -13 -16 -4 3
8 16 5 29 -11 55 -14 23 -16 29 -5 20 9 -7 19 -21 22 -32z"/>
<path d="M4426 5894 c-23 -23 -17 -58 11 -62 29 -4 43 42 21 65 -13 13 -17 12
-32 -3z"/>
<path d="M4400 5666 c-18 -23 -8 -61 17 -64 17 -3 24 3 29 22 4 16 1 32 -6 41
-16 19 -24 19 -40 1z"/>
<path d="M4525 5657 c-18 -29 -11 -57 16 -57 21 0 27 10 31 50 4 33 -26 38
-47 7z"/>
<path d="M4662 5668 c-7 -7 -12 -25 -12 -41 0 -24 4 -28 23 -25 18 2 22 9 22
37 0 37 -13 49 -33 29z"/>
<path d="M1775 6840 c-3 -5 -1 -10 4 -10 6 0 11 5 11 10 0 6 -2 10 -4 10 -3 0
-8 -4 -11 -10z"/>
<path d="M1691 6785 c-34 -25 -61 -48 -61 -52 0 -3 11 -26 25 -50 25 -42 27
-43 78 -43 51 0 53 1 80 46 l28 46 -22 36 c-22 37 -46 62 -60 62 -4 0 -34 -20
-68 -45z"/>
<path d="M1985 6767 c-18 -34 -18 -35 6 -78 18 -33 31 -45 52 -47 15 -2 27 1
27 6 0 12 -50 135 -59 145 -4 4 -16 -8 -26 -26z"/>
<path d="M1824 6683 l-27 -47 26 -45 c24 -44 28 -46 75 -49 45 -3 52 0 70 25
43 62 43 67 12 117 -29 45 -31 46 -79 46 -48 0 -50 -1 -77 -47z"/>
<path d="M1593 6705 c-11 -8 -40 -37 -63 -65 -40 -47 -42 -53 -30 -76 12 -21
21 -24 64 -24 50 0 52 1 79 47 28 46 28 46 10 80 -25 48 -36 55 -60 38z"/>
<path d="M1656 6586 c-14 -25 -26 -47 -26 -50 0 -4 11 -24 25 -46 24 -39 27
-40 80 -40 53 0 54 1 80 44 l26 44 -28 46 c-27 45 -29 46 -79 46 -51 0 -53 -1
-78 -44z"/>
<path d="M2012 6618 c-5 -7 -17 -28 -27 -47 -17 -34 -17 -36 6 -78 24 -43 24
-43 81 -43 32 0 58 4 58 9 0 6 -11 46 -25 90 -24 76 -28 81 -54 81 -16 0 -33
-6 -39 -12z"/>
<path d="M1427 6516 c-26 -35 -65 -94 -86 -131 l-39 -67 20 -34 c19 -32 23
-34 73 -34 52 0 53 1 80 45 l26 46 -23 42 c-20 36 -29 43 -63 48 -40 5 -34 15
15 21 17 2 32 16 47 43 27 47 27 46 10 69 -11 15 -17 10 -60 -48z"/>
<path d="M1485 6485 l-26 -46 26 -44 c25 -44 27 -45 79 -45 53 0 54 1 80 45
l27 45 -27 45 c-26 44 -27 45 -79 45 -52 0 -53 -1 -80 -45z"/>
<path d="M1842 6518 c-5 -7 -17 -28 -26 -46 -16 -32 -16 -34 6 -75 23 -41 25
-42 80 -45 l56 -3 25 46 26 46 -27 44 c-26 44 -28 45 -78 45 -29 0 -56 -5 -62
-12z"/>
<path d="M1654 6388 l-27 -43 25 -45 c24 -44 26 -45 79 -48 l54 -3 28 46 27
46 -26 45 c-26 43 -27 44 -80 44 -52 0 -54 -1 -80 -42z"/>
<path d="M1991 6386 l-24 -43 24 -44 c24 -43 26 -44 80 -47 52 -3 56 -1 68 24
6 15 14 24 18 21 3 -4 -1 -16 -9 -29 -13 -20 -12 -26 10 -65 13 -24 27 -43 32
-43 4 0 1 30 -7 68 -7 37 -18 85 -22 107 -18 89 -24 95 -88 95 l-58 0 -24 -44z"/>
<path d="M1487 6293 l-29 -46 26 -46 c24 -45 26 -46 78 -49 l53 -3 28 46 27
47 -26 49 c-27 49 -27 49 -78 49 -50 0 -52 -1 -79 -47z"/>
<path d="M1824 6293 l-27 -47 26 -45 c25 -45 27 -46 79 -49 l53 -3 27 48 27
49 -30 47 c-28 46 -30 47 -78 47 -48 0 -50 -1 -77 -47z"/>
<path d="M1262 6235 c-38 -78 -39 -85 -8 -85 18 0 31 11 50 44 31 52 31 54 8
84 l-17 22 -33 -65z"/>
<path d="M1317 6194 l-28 -47 28 -45 c27 -44 30 -45 78 -45 48 0 51 2 79 43
l29 43 -26 46 c-25 45 -27 46 -79 49 l-53 3 -28 -47z"/>
<path d="M1655 6194 l-27 -46 18 -35 c27 -49 38 -56 92 -56 45 0 48 2 75 45
l28 45 -28 47 c-27 45 -29 46 -79 46 -51 0 -53 -1 -79 -46z"/>
<path d="M2012 6228 c-5 -7 -17 -28 -27 -47 -17 -34 -17 -36 6 -78 13 -24 27
-43 31 -44 5 0 29 -1 56 -1 45 -1 48 0 71 41 13 23 25 40 28 37 3 -2 -5 -23
-18 -46 l-23 -41 24 -44 c25 -46 60 -62 60 -27 -1 57 -22 154 -37 170 -10 9
-27 34 -38 55 -19 35 -22 37 -71 37 -29 0 -56 -5 -62 -12z"/>
<path d="M1209 6113 c-34 -86 -48 -138 -41 -145 5 -5 33 -8 63 -6 52 3 55 5
77 46 l24 42 -27 45 c-21 37 -31 45 -56 45 -23 0 -32 -6 -40 -27z"/>
<path d="M1485 6095 l-26 -46 26 -44 c25 -44 27 -45 79 -45 53 0 54 1 80 45
l27 45 -27 45 c-26 44 -27 45 -79 45 -52 0 -53 -1 -80 -45z"/>
<path d="M1836 6118 c-38 -60 -40 -73 -12 -117 25 -40 28 -41 80 -41 54 0 54
0 80 45 l25 46 -27 44 c-26 44 -28 45 -79 45 -44 0 -55 -4 -67 -22z"/>
<path d="M1316 5997 l-26 -44 26 -47 c26 -46 26 -46 79 -46 52 0 53 1 80 45
l26 46 -23 42 c-23 41 -25 42 -80 45 l-57 3 -25 -44z"/>
<path d="M1672 6028 c-5 -7 -17 -28 -26 -46 -17 -32 -16 -34 9 -78 25 -43 27
-44 78 -44 51 0 53 1 80 46 l27 45 -26 45 c-25 43 -27 44 -79 44 -30 0 -57 -5
-63 -12z"/>
<path d="M1991 5996 l-24 -43 24 -44 c24 -43 26 -44 79 -47 l55 -3 26 47 26
46 -24 44 c-25 44 -25 44 -82 44 -56 0 -56 0 -80 -44z"/>
<path d="M1153 5939 c3 -12 -3 -34 -13 -52 -19 -31 -19 -31 8 -79 27 -48 27
-48 79 -48 50 0 52 1 78 46 l27 46 -25 47 c-24 43 -28 46 -72 49 -28 2 -53 -2
-63 -10 -13 -11 -15 -11 -9 5 4 9 2 17 -4 17 -7 0 -9 -9 -6 -21z"/>
<path d="M1487 5903 l-29 -46 26 -46 c24 -45 26 -46 78 -49 l53 -3 28 46 27
47 -26 49 c-27 49 -27 49 -78 49 -50 0 -52 -1 -79 -47z"/>
<path d="M1824 5903 l-27 -47 26 -45 c25 -45 27 -46 79 -49 l53 -3 27 48 27
49 -30 47 c-28 46 -30 47 -78 47 -48 0 -50 -1 -77 -47z"/>
<path d="M1317 5804 l-28 -47 28 -46 c28 -45 30 -46 78 -46 47 0 51 2 79 44
l29 44 -26 46 c-25 45 -27 46 -79 49 l-53 3 -28 -47z"/>
<path d="M1655 5804 l-27 -46 24 -44 c24 -47 44 -58 99 -52 27 2 38 11 62 49
l28 46 -28 47 c-27 45 -29 46 -79 46 -51 0 -53 -1 -79 -46z"/>
<path d="M1994 5804 l-28 -47 27 -46 c25 -46 26 -46 78 -46 52 0 53 1 80 45
l26 45 -26 47 c-26 48 -26 48 -78 48 -51 0 -53 -1 -79 -46z"/>
<path d="M1117 5820 c-7 -20 -27 -130 -27 -147 0 -26 19 -12 45 33 l28 47 -21
41 c-13 27 -22 36 -25 26z"/>
<path d="M1146 5704 l-26 -46 26 -44 26 -45 57 3 c54 3 56 4 79 46 l24 42 -27
45 c-26 44 -26 45 -80 45 -53 0 -53 0 -79 -46z"/>
<path d="M1485 5705 l-26 -46 26 -44 c25 -44 27 -45 79 -45 53 0 54 1 80 45
l27 45 -27 45 c-26 44 -27 45 -79 45 -52 0 -53 -1 -80 -45z"/>
<path d="M1836 5728 c-38 -60 -40 -73 -12 -117 25 -40 28 -41 80 -41 54 0 54
0 80 45 l25 46 -27 44 c-26 44 -28 45 -79 45 -44 0 -55 -4 -67 -22z"/>
<path d="M2161 5704 l-25 -46 24 -44 c18 -32 31 -44 47 -44 22 0 23 3 23 90 0
87 -1 90 -23 90 -16 0 -28 -12 -46 -46z"/>
<path d="M1071 5583 c-7 -38 -15 -78 -18 -91 -5 -21 -3 -23 28 -20 28 2 38 10
57 46 l24 43 -23 45 c-35 64 -53 58 -68 -23z"/>
<path d="M1315 5606 l-25 -43 26 -47 c26 -46 26 -46 79 -46 52 0 53 1 80 45
l26 46 -26 44 c-26 44 -26 45 -80 45 -53 0 -55 -1 -80 -44z"/>
<path d="M1672 5638 c-5 -7 -17 -28 -26 -46 -17 -32 -16 -34 9 -78 25 -43 27
-44 78 -44 51 0 53 1 80 46 l27 45 -26 45 c-25 43 -27 44 -79 44 -30 0 -57 -5
-63 -12z"/>
<path d="M1991 5606 l-24 -43 24 -44 c24 -43 26 -44 79 -47 l55 -3 26 47 27
47 -27 44 c-25 42 -27 43 -81 43 -55 0 -56 0 -79 -44z"/>
<path d="M1150 5514 l-29 -47 27 -49 c27 -48 27 -48 79 -48 50 0 52 1 78 46
l27 46 -25 47 c-25 44 -28 46 -76 49 -51 3 -51 3 -81 -44z"/>
<path d="M1487 5513 l-29 -46 26 -46 c24 -45 26 -46 78 -49 l53 -3 28 46 c26
44 27 47 11 78 -29 56 -44 67 -93 67 -44 0 -47 -2 -74 -47z"/>
<path d="M1824 5513 l-27 -47 26 -45 c25 -45 27 -46 79 -49 l53 -3 27 48 27
49 -30 47 c-28 46 -30 47 -78 47 -48 0 -50 -1 -77 -47z"/>
<path d="M1046 5448 c-7 -20 -36 -159 -36 -169 0 -5 22 -9 49 -9 48 0 50 1 77
47 l27 47 -25 46 c-20 37 -31 46 -57 48 -19 2 -33 -2 -35 -10z"/>
<path d="M1317 5414 l-28 -47 28 -46 c27 -44 31 -46 78 -49 50 -3 50 -3 79 45
l28 48 -25 45 c-25 44 -27 45 -79 48 l-53 3 -28 -47z"/>
<path d="M1655 5414 l-27 -46 25 -47 c26 -46 26 -46 79 -46 51 0 53 1 81 46
l28 46 -28 47 c-27 45 -29 46 -79 46 -51 0 -53 -1 -79 -46z"/>
<path d="M1994 5414 l-28 -47 27 -46 c25 -46 26 -46 78 -46 52 0 53 1 80 45
l26 45 -26 47 c-26 48 -26 48 -78 48 -51 0 -53 -1 -79 -46z"/>
<path d="M1146 5314 l-26 -46 26 -44 26 -45 57 3 c54 3 56 4 79 46 l24 42 -27
45 c-26 44 -26 45 -80 45 -53 0 -53 0 -79 -46z"/>
<path d="M1485 5315 l-26 -46 26 -44 c26 -44 26 -45 80 -45 54 0 54 1 80 45
l26 44 -26 46 c-27 44 -28 45 -80 45 -52 0 -53 -1 -80 -45z"/>
<path d="M1836 5338 c-38 -60 -40 -73 -12 -117 25 -40 28 -41 80 -41 54 0 54
0 80 45 l25 46 -27 44 c-26 44 -28 45 -79 45 -44 0 -55 -4 -67 -22z"/>
<path d="M992 5209 c-25 -105 -10 -132 69 -127 52 3 55 5 77 46 l24 43 -23 45
-24 44 -56 0 -56 0 -11 -51z"/>
<path d="M1315 5216 l-25 -43 26 -47 c26 -46 26 -46 79 -46 52 0 53 1 80 45
l26 46 -26 44 c-26 44 -26 45 -80 45 -53 0 -55 -1 -80 -44z"/>
<path d="M1672 5248 c-5 -7 -17 -28 -26 -46 -17 -32 -16 -34 9 -78 25 -43 27
-44 80 -44 53 0 53 0 79 46 l26 46 -26 44 c-25 43 -27 44 -79 44 -30 0 -57 -5
-63 -12z"/>
<path d="M1991 5216 l-23 -45 24 -43 c23 -42 25 -43 78 -46 l55 -3 26 47 27
47 -27 44 c-25 42 -27 43 -81 43 -55 0 -55 0 -79 -44z"/>
<path d="M1150 5124 l-30 -47 27 -49 c26 -48 26 -48 79 -48 51 0 52 1 79 46
l27 46 -25 47 c-25 44 -28 46 -76 49 -51 3 -51 3 -81 -44z"/>
<path d="M1508 5153 c-8 -10 -23 -32 -32 -48 -17 -29 -17 -31 9 -78 26 -47 27
-47 78 -47 51 0 53 1 80 45 26 44 27 47 11 78 -28 55 -44 67 -89 67 -27 0 -47
-6 -57 -17z"/>
<path d="M1824 5123 l-27 -47 26 -45 c25 -45 27 -46 79 -49 l53 -3 27 48 27
49 -30 47 c-28 46 -30 47 -78 47 -48 0 -50 -1 -77 -47z"/>
<path d="M967 5100 c-14 -35 -28 -102 -23 -107 2 -3 14 14 26 37 17 33 19 48
12 64 -8 17 -11 18 -15 6z"/>
<path d="M978 5022 l-27 -48 30 -47 c30 -48 30 -48 80 -45 48 3 51 5 77 49
l26 46 -28 47 c-26 45 -28 46 -79 46 -52 0 -52 0 -79 -48z"/>
<path d="M1317 5024 l-28 -47 28 -46 c28 -45 30 -46 78 -46 47 0 51 2 79 44
l29 44 -26 46 c-25 45 -27 46 -79 49 l-53 3 -28 -47z"/>
<path d="M1655 5024 l-27 -46 24 -44 c24 -47 44 -58 99 -52 27 2 38 11 62 49
l28 46 -28 47 c-27 45 -29 46 -79 46 -51 0 -53 -1 -79 -46z"/>
<path d="M1994 5024 l-28 -47 27 -46 c25 -46 26 -46 79 -46 l53 0 24 49 24 48
-24 44 c-23 43 -24 44 -76 44 -52 0 -52 -1 -79 -46z"/>
<path d="M912 4891 c-28 -99 -28 -101 6 -101 22 0 32 8 52 44 l24 44 -25 46
c-13 25 -27 46 -30 46 -3 0 -16 -35 -27 -79z"/>
<path d="M1147 4924 l-27 -45 26 -45 26 -45 57 3 c54 3 56 4 79 46 l24 42 -27
45 c-25 44 -27 45 -78 45 -51 0 -53 -1 -80 -46z"/>
<path d="M1485 4925 l-26 -46 26 -44 c26 -44 26 -45 80 -45 54 0 54 1 80 45
l26 44 -26 46 c-27 44 -28 45 -80 45 -52 0 -53 -1 -80 -45z"/>
<path d="M1836 4948 c-38 -60 -40 -73 -12 -117 25 -40 28 -41 80 -41 54 0 54
0 80 45 l25 46 -27 44 c-26 44 -28 45 -79 45 -44 0 -55 -4 -67 -22z"/>
<path d="M2130 4880 c0 -6 -26 -10 -58 -10 l-57 0 -24 -44 -23 -45 24 -43 c21
-39 27 -43 65 -46 42 -3 42 -3 53 40 6 24 15 58 20 77 5 19 7 38 4 43 -3 5 0
15 6 23 9 11 9 15 1 15 -6 0 -11 -4 -11 -10z"/>
<path d="M976 4825 l-25 -46 27 -45 27 -45 55 3 c53 3 55 4 78 46 l24 43 -23
45 -24 44 -57 0 -56 0 -26 -45z"/>
<path d="M1316 4826 l-26 -44 26 -46 c26 -46 26 -46 79 -46 52 0 53 1 80 45
l26 46 -26 44 c-25 44 -27 45 -79 45 -53 0 -54 -1 -80 -44z"/>
<path d="M1672 4858 c-5 -7 -17 -28 -26 -46 -17 -32 -16 -34 9 -78 25 -43 27
-44 80 -44 53 0 53 0 79 46 l26 46 -26 44 c-25 43 -27 44 -79 44 -30 0 -57 -5
-63 -12z"/>
<path d="M870 4738 c-6 -24 -18 -63 -25 -87 -8 -25 -15 -48 -15 -53 0 -4 25
-8 55 -8 54 0 54 0 82 47 l27 46 -26 46 c-20 37 -31 47 -56 49 -29 3 -32 0
-42 -40z"/>
<path d="M1150 4734 l-30 -47 27 -49 c26 -48 26 -48 79 -48 51 0 52 1 79 46
l27 46 -25 47 c-25 44 -28 46 -76 49 -51 3 -51 3 -81 -44z"/>
<path d="M1487 4733 l-29 -46 26 -46 c24 -45 26 -46 78 -49 l53 -3 28 46 c26
44 27 47 11 78 -29 56 -44 67 -93 67 -44 0 -47 -2 -74 -47z"/>
<path d="M1824 4733 l-27 -47 25 -46 c24 -44 26 -45 79 -48 l54 -3 27 48 27
49 -30 47 c-28 46 -30 47 -78 47 -48 0 -50 -1 -77 -47z"/>
<path d="M978 4632 l-27 -48 30 -47 c30 -48 30 -48 80 -45 48 3 51 5 77 49
l26 46 -28 47 c-26 45 -28 46 -79 46 -52 0 -52 0 -79 -48z"/>
<path d="M1317 4634 l-28 -47 28 -46 c28 -45 30 -46 78 -46 47 0 51 2 78 43
l29 44 -25 46 c-25 46 -27 47 -79 50 l-53 3 -28 -47z"/>
<path d="M1655 4634 l-27 -46 25 -47 c26 -46 26 -46 79 -46 51 0 53 1 81 46
l28 46 -28 47 c-27 45 -29 46 -79 46 -51 0 -53 -1 -79 -46z"/>
<path d="M1994 4634 l-28 -47 27 -46 c14 -25 32 -46 39 -46 14 0 44 79 54 145
l7 40 -36 0 c-32 0 -39 -5 -63 -46z"/>
<path d="M812 4528 l-20 -53 21 -37 c20 -37 22 -38 76 -38 55 0 57 1 79 40 28
49 28 52 -3 100 -24 39 -27 40 -79 40 l-55 0 -19 -52z"/>
<path d="M1147 4534 l-27 -45 26 -45 26 -45 57 3 c54 3 56 4 79 46 l24 42 -27
45 c-25 44 -27 45 -78 45 -51 0 -53 -1 -80 -46z"/>
<path d="M1485 4535 l-26 -46 26 -44 c26 -44 26 -45 80 -45 54 0 54 1 80 45
l26 44 -26 46 c-27 44 -28 45 -80 45 -52 0 -53 -1 -80 -45z"/>
<path d="M1836 4558 c-38 -60 -40 -73 -12 -117 25 -40 28 -41 80 -41 54 0 54
0 80 45 l25 46 -27 44 c-26 44 -28 45 -79 45 -44 0 -55 -4 -67 -22z"/>
<path d="M977 4435 l-26 -45 26 -45 25 -46 56 3 c55 3 57 4 80 46 l24 43 -23
45 -24 44 -57 0 -56 0 -25 -45z"/>
<path d="M1316 4435 l-27 -45 27 -45 c26 -44 27 -45 79 -45 52 0 53 1 80 45
l26 46 -26 44 c-25 44 -27 45 -79 45 -53 0 -54 -1 -80 -45z"/>
<path d="M1672 4468 c-5 -7 -17 -28 -26 -46 -17 -32 -16 -34 9 -78 25 -43 27
-44 80 -44 53 0 53 0 79 46 l26 46 -26 44 c-25 43 -27 44 -79 44 -30 0 -57 -5
-63 -12z"/>
<path d="M1992 4438 c-26 -50 -27 -61 -8 -77 12 -10 17 -2 32 41 9 29 19 59
22 66 2 6 -2 12 -9 12 -8 0 -24 -19 -37 -42z"/>
<path d="M788 4444 c-11 -19 -39 -126 -34 -131 11 -11 32 6 50 41 18 33 18 39
4 68 -8 17 -17 27 -20 22z"/>
<path d="M814 4349 c-14 -22 -23 -43 -20 -46 2 -3 42 -16 88 -29 72 -20 84
-21 94 -9 6 8 15 15 19 15 4 0 2 -7 -5 -15 -10 -12 -10 -16 1 -19 40 -13 163
-45 165 -43 2 2 -8 22 -22 45 -25 41 -26 42 -82 42 l-57 0 -28 50 c-28 49 -29
50 -77 50 -47 0 -51 -2 -76 -41z"/>
<path d="M1162 4363 c-44 -63 -44 -68 -15 -117 27 -45 29 -46 79 -46 51 0 53
1 79 46 l27 46 -25 47 c-25 44 -28 46 -75 49 -45 3 -52 0 -70 -25z"/>
<path d="M1508 4373 c-8 -10 -23 -32 -32 -48 -17 -29 -17 -31 9 -78 26 -47 27
-47 78 -47 51 0 53 1 80 46 l28 47 -28 46 c-27 42 -32 46 -74 49 -34 2 -49 -2
-61 -15z"/>
<path d="M1824 4343 l-27 -47 25 -46 c24 -44 27 -45 74 -45 l48 0 24 62 25 61
-22 31 c-20 27 -28 31 -71 31 -47 0 -49 -1 -76 -47z"/>
<path d="M1317 4244 c-25 -42 -27 -48 -13 -69 10 -15 33 -26 78 -36 82 -18 76
-19 99 21 l20 35 -26 48 c-26 47 -27 47 -78 47 -51 0 -53 -1 -80 -46z"/>
<path d="M1656 4246 c-14 -25 -26 -47 -26 -50 0 -3 13 -28 30 -55 16 -28 25
-53 20 -56 -21 -13 -7 -23 53 -39 34 -10 70 -20 80 -22 15 -5 15 -2 -4 33 -17
31 -17 34 -2 16 10 -12 26 -33 35 -45 16 -23 17 -23 48 47 56 122 56 115 5
115 -42 0 -46 -2 -71 -45 -14 -25 -29 -44 -31 -41 -3 2 7 25 21 49 l27 45 -28
46 c-27 45 -29 46 -79 46 -51 0 -53 -1 -78 -44z m102 -153 c-10 -2 -28 -2 -40
0 -13 2 -5 4 17 4 22 1 32 -1 23 -4z"/>
<path d="M1235 4180 c28 -12 57 -12 50 0 -3 6 -21 10 -38 9 -27 0 -29 -2 -12
-9z"/>
<path d="M1491 4158 c-11 -18 -17 -36 -13 -39 8 -8 152 -49 169 -49 23 0 22
33 -3 76 -25 43 -27 44 -79 44 -49 0 -55 -3 -74 -32z"/>
<path d="M744 2635 c-40 -62 48 -131 119 -94 28 15 37 28 37 57 0 38 -34 62
-90 62 -42 0 -52 -4 -66 -25z m120 -17 c21 -30 4 -58 -35 -58 -58 0 -89 36
-57 68 20 20 75 15 92 -10z"/>
<path d="M733 2483 c-4 -9 1 -29 9 -44 14 -24 14 -28 1 -33 -34 -13 4 -26 78
-26 64 0 79 3 79 15 0 11 -13 15 -54 15 -47 0 -57 4 -75 26 -22 28 -20 44 5
44 8 0 14 5 14 10 0 17 -50 11 -57 -7z"/>
<path d="M874 2329 c-10 -17 13 -36 27 -22 12 12 4 33 -11 33 -5 0 -12 -5 -16
-11z"/>
<path d="M850 2261 c0 -5 4 -12 9 -15 19 -12 22 -58 5 -84 l-17 -26 -29 57
c-30 61 -58 74 -78 38 -16 -32 -12 -60 15 -86 26 -27 80 -34 115 -15 26 14 36
71 18 106 -13 28 -38 44 -38 25z m-52 -76 c25 -51 11 -62 -27 -21 -16 17 -21
31 -16 45 10 31 19 26 43 -24z"/>
<path d="M352 2128 c6 -18 28 -21 28 -4 0 9 -7 16 -16 16 -9 0 -14 -5 -12 -12z"/>
<path d="M434 2131 c-15 -15 5 -21 71 -21 41 0 75 4 75 9 0 9 -138 20 -146 12z"/>
<path d="M740 2081 c-12 -9 -13 -15 -1 -47 10 -28 11 -39 2 -42 -6 -2 -9 -8
-5 -13 7 -12 164 -12 164 1 0 6 -20 10 -44 10 -58 0 -74 7 -91 41 -14 26 -14
28 8 31 12 2 22 8 22 13 0 14 -37 17 -55 6z"/>
<path d="M424 2045 c-3 -8 1 -27 9 -43 12 -26 12 -30 -2 -40 -12 -8 5 -11 72
-11 52 -1 87 3 87 9 0 6 -24 10 -53 10 -40 0 -58 5 -70 18 -24 26 -22 52 4 52
11 0 17 5 14 10 -9 15 -55 12 -61 -5z"/>
<path d="M870 1930 c-8 -6 -39 -9 -68 -8 -37 1 -56 -3 -63 -13 -29 -46 22
-119 85 -119 54 0 75 26 73 94 -1 59 -3 62 -27 46z m4 -52 c17 -27 -4 -52 -46
-56 -29 -2 -40 2 -56 23 -32 40 -19 57 41 53 34 -2 53 -8 61 -20z"/>
<path d="M420 1890 c0 -5 30 -10 68 -12 l67 -3 0 -35 0 -35 -67 -3 c-69 -3
-89 -16 -42 -28 33 -8 113 3 132 18 10 8 12 24 9 50 -3 21 -1 38 5 38 5 0 6 5
3 10 -8 13 -175 13 -175 0z"/>
<path d="M748 1754 c-5 -4 -8 -27 -8 -50 0 -34 5 -47 26 -63 32 -25 86 -27
108 -5 19 18 21 65 4 82 -19 19 33 15 61 -4 20 -14 22 -23 18 -56 -4 -27 -2
-38 6 -35 28 9 19 100 -11 116 -23 12 -195 25 -204 15z m71 -24 c41 -11 63
-38 50 -62 -30 -56 -136 -3 -113 57 7 18 17 18 63 5z"/>
<path d="M445 1716 c-26 -19 -23 -76 6 -98 26 -22 87 -23 117 -2 28 19 29 67
2 94 -24 24 -96 27 -125 6z m106 -27 c24 -24 21 -39 -12 -58 -50 -28 -118 33
-73 66 26 19 61 16 85 -8z"/>
<path d="M730 1569 c0 -11 5 -29 11 -40 7 -15 7 -24 -2 -35 -10 -12 1 -14 75
-14 51 0 86 4 86 10 0 6 -24 10 -53 10 -40 0 -58 5 -70 18 -21 23 -22 52 -2
52 8 0 15 5 15 10 0 6 -13 10 -30 10 -24 0 -30 -4 -30 -21z"/>
<path d="M556 1562 c-4 -6 -1 -20 6 -31 19 -31 -4 -71 -40 -71 -35 0 -86 37
-78 56 3 8 9 21 12 29 9 23 -14 18 -26 -6 -27 -49 21 -99 93 -99 41 0 67 25
67 66 0 35 -23 73 -34 56z"/>
<path d="M850 1437 c0 -2 7 -18 15 -34 11 -23 13 -37 5 -57 -13 -36 -24 -33
-45 14 -22 49 -47 72 -68 64 -19 -7 -31 -55 -22 -84 8 -24 54 -50 90 -50 33 0
75 42 75 74 0 34 -20 76 -37 76 -7 0 -13 -2 -13 -3z m-50 -78 c24 -46 21 -56
-9 -40 -26 14 -43 45 -35 65 10 26 22 19 44 -25z"/>
<path d="M352 1378 c6 -18 28 -21 28 -4 0 9 -7 16 -16 16 -9 0 -14 -5 -12 -12z"/>
<path d="M430 1370 c0 -6 32 -10 75 -10 43 0 75 4 75 10 0 6 -32 10 -75 10
-43 0 -75 -4 -75 -10z"/>
<path d="M424 1295 c-3 -8 1 -28 9 -44 13 -26 13 -30 0 -35 -34 -13 4 -26 78
-26 64 0 79 3 79 15 0 11 -13 15 -53 15 -40 0 -58 5 -70 18 -24 26 -22 52 4
52 11 0 17 5 14 10 -9 15 -55 12 -61 -5z"/>
<path d="M648 1245 c-19 -19 12 -25 128 -25 76 0 124 4 124 10 0 6 -33 10 -79
10 -43 0 -98 3 -122 6 -24 3 -47 3 -51 -1z"/>
<path d="M356 1134 c-11 -81 -8 -166 7 -162 6 3 13 20 15 40 3 34 5 36 49 42
25 3 70 6 99 6 29 0 55 4 58 9 10 16 -15 19 -111 13 l-93 -5 0 52 c0 64 -15
67 -24 5z"/>
<path d="M825 1144 c-27 -7 -76 -18 -107 -24 -32 -6 -58 -14 -58 -18 0 -4 15
-17 33 -28 58 -39 122 -77 125 -76 1 2 16 -5 33 -14 21 -10 35 -12 41 -6 7 7
-3 17 -31 31 -41 21 -42 24 -45 88 -1 11 12 20 39 27 22 7 39 16 38 21 -2 14
-12 14 -68 -1z m-35 -76 c0 -22 -5 -22 -41 -1 -36 22 -37 31 -1 35 29 3 42 -7
42 -34z"/>
<path d="M2900 941 c-5 -11 -10 -22 -10 -25 0 -3 34 -6 75 -6 55 0 75 3 75 13
0 25 -25 37 -77 37 -41 0 -54 -4 -63 -19z"/>
<path d="M3240 941 c-5 -11 -10 -22 -10 -25 0 -3 34 -6 75 -6 41 0 75 3 75 6
0 3 -5 14 -10 25 -9 15 -22 19 -65 19 -43 0 -56 -4 -65 -19z"/>
<path d="M3582 948 c-29 -29 -13 -38 63 -38 41 0 75 3 75 8 0 4 -7 15 -14 25
-16 20 -105 24 -124 5z"/>
<path d="M4590 941 c-5 -11 -10 -22 -10 -25 0 -3 34 -6 75 -6 41 0 75 3 75 6
0 3 -5 14 -10 25 -9 15 -22 19 -65 19 -43 0 -56 -4 -65 -19z"/>
<path d="M4930 941 c-5 -11 -10 -22 -10 -25 0 -3 34 -6 75 -6 41 0 75 3 75 6
0 3 -5 14 -10 25 -9 15 -22 19 -65 19 -43 0 -56 -4 -65 -19z"/>
<path d="M612 923 c-20 -8 -42 -59 -41 -95 0 -18 3 -26 6 -18 10 27 46 60 65
60 10 0 30 -11 44 -25 15 -15 36 -25 53 -25 58 0 79 -63 39 -116 -14 -19 -6
-14 23 13 37 37 44 49 44 84 0 51 -22 69 -82 69 -24 0 -43 5 -43 10 0 34 -66
60 -108 43z"/>
<path d="M373 824 c-20 -20 -24 -32 -20 -58 4 -28 0 -36 -29 -60 -43 -34 -44
-67 -5 -107 23 -22 38 -29 68 -28 32 0 35 2 16 9 -12 5 -29 20 -39 34 -15 24
-15 28 0 52 10 14 24 28 32 31 9 3 12 13 8 29 -4 15 0 34 10 49 21 32 63 33
102 3 l29 -23 -24 34 c-23 32 -73 61 -106 61 -9 0 -27 -12 -42 -26z"/>
<path d="M2300 785 c14 -8 30 -14 35 -14 6 0 -1 6 -15 14 -14 8 -29 14 -35 14
-5 0 1 -6 15 -14z"/>
<path d="M5640 770 c-8 -5 -10 -10 -5 -10 6 0 17 5 25 10 8 5 11 10 5 10 -5 0
-17 -5 -25 -10z"/>
<path d="M2360 762 c8 -5 26 -13 40 -16 17 -5 20 -4 10 2 -8 5 -26 13 -40 16
-17 5 -20 4 -10 -2z"/>
<path d="M5525 730 c-44 -16 -75 -29 -69 -29 12 -1 155 46 162 54 10 10 -13 3
-93 -25z"/>
<path d="M2528 703 c7 -3 16 -2 19 1 4 3 -2 6 -13 5 -11 0 -14 -3 -6 -6z"/>
<path d="M5418 693 c7 -3 16 -2 19 1 4 3 -2 6 -13 5 -11 0 -14 -3 -6 -6z"/>
<path d="M2598 683 c7 -3 16 -2 19 1 4 3 -2 6 -13 5 -11 0 -14 -3 -6 -6z"/>
<path d="M5355 680 c-13 -5 -14 -9 -5 -9 8 0 24 4 35 9 13 5 14 9 5 9 -8 0
-24 -4 -35 -9z"/>
<path d="M2638 673 c7 -3 16 -2 19 1 4 3 -2 6 -13 5 -11 0 -14 -3 -6 -6z"/>
<path d="M2678 663 c7 -3 16 -2 19 1 4 3 -2 6 -13 5 -11 0 -14 -3 -6 -6z"/>
<path d="M5298 663 c7 -3 16 -2 19 1 4 3 -2 6 -13 5 -11 0 -14 -3 -6 -6z"/>
<path d="M2728 653 c7 -3 16 -2 19 1 4 3 -2 6 -13 5 -11 0 -14 -3 -6 -6z"/>
<path d="M5258 653 c7 -3 16 -2 19 1 4 3 -2 6 -13 5 -11 0 -14 -3 -6 -6z"/>
<path d="M809 639 c54 -21 67 -75 26 -107 -17 -13 -25 -30 -25 -50 0 -57 -57
-81 -110 -45 -19 12 -16 7 9 -20 42 -44 90 -57 126 -33 20 13 25 25 25 59 0
36 5 47 30 65 30 23 39 58 24 97 -9 23 -57 45 -96 44 -31 0 -32 -1 -9 -10z"/>
<path d="M2768 643 c6 -2 18 -2 25 0 6 3 1 5 -13 5 -14 0 -19 -2 -12 -5z"/>
<path d="M5208 643 c7 -3 16 -2 19 1 4 3 -2 6 -13 5 -11 0 -14 -3 -6 -6z"/>
<path d="M2818 633 c6 -2 18 -2 25 0 6 3 1 5 -13 5 -14 0 -19 -2 -12 -5z"/>
<path d="M5158 633 c7 -3 16 -2 19 1 4 3 -2 6 -13 5 -11 0 -14 -3 -6 -6z"/>
<path d="M2878 623 c7 -3 16 -2 19 1 4 3 -2 6 -13 5 -11 0 -14 -3 -6 -6z"/>
<path d="M5098 623 c6 -2 18 -2 25 0 6 3 1 5 -13 5 -14 0 -19 -2 -12 -5z"/>
<path d="M2938 613 c7 -3 16 -2 19 1 4 3 -2 6 -13 5 -11 0 -14 -3 -6 -6z"/>
<path d="M5038 613 c6 -2 18 -2 25 0 6 3 1 5 -13 5 -14 0 -19 -2 -12 -5z"/>
<path d="M2998 603 c6 -2 18 -2 25 0 6 3 1 5 -13 5 -14 0 -19 -2 -12 -5z"/>
<path d="M4978 603 c7 -3 16 -2 19 1 4 3 -2 6 -13 5 -11 0 -14 -3 -6 -6z"/>
<path d="M3078 593 c6 -2 18 -2 25 0 6 3 1 5 -13 5 -14 0 -19 -2 -12 -5z"/>
<path d="M4898 593 c6 -2 18 -2 25 0 6 3 1 5 -13 5 -14 0 -19 -2 -12 -5z"/>
<path d="M3158 583 c6 -2 18 -2 25 0 6 3 1 5 -13 5 -14 0 -19 -2 -12 -5z"/>
<path d="M4813 583 c9 -2 23 -2 30 0 6 3 -1 5 -18 5 -16 0 -22 -2 -12 -5z"/>
<path d="M3253 573 c9 -2 23 -2 30 0 6 3 -1 5 -18 5 -16 0 -22 -2 -12 -5z"/>
<path d="M4713 573 c9 -2 25 -2 35 0 9 3 1 5 -18 5 -19 0 -27 -2 -17 -5z"/>
<path d="M3363 563 c9 -2 25 -2 35 0 9 3 1 5 -18 5 -19 0 -27 -2 -17 -5z"/>
<path d="M4598 563 c12 -2 30 -2 40 0 9 3 -1 5 -23 4 -22 0 -30 -2 -17 -4z"/>
<path d="M3513 553 c15 -2 37 -2 50 0 12 2 0 4 -28 4 -27 0 -38 -2 -22 -4z"/>
<path d="M4433 553 c15 -2 37 -2 50 0 12 2 0 4 -28 4 -27 0 -38 -2 -22 -4z"/>
<path d="M3853 543 c81 -2 213 -2 295 0 81 1 14 3 -148 3 -162 0 -229 -2 -147
-3z"/>
<path d="M415 505 c-29 -30 -35 -43 -35 -79 0 -54 19 -71 76 -70 35 1 44 -3
53 -23 15 -33 54 -49 85 -35 32 14 52 47 61 97 l7 40 -24 -34 c-35 -51 -63
-57 -99 -21 -16 16 -36 27 -44 24 -15 -6 -55 12 -67 30 -14 20 -8 53 13 80 29
37 16 32 -26 -9z"/>
</g>
</svg>
